<?xml version="1.0" standalone="no"?>
<!DOCTYPE svg PUBLIC "-//W3C//DTD SVG 1.1//EN" "http://www.w3.org/Graphics/SVG/1.1/DTD/svg11.dtd" >
<svg>
<metadata>
Created by FontForge 20120731 at Sun Jun 30 02:22:33 2019
 By www
Copyright 1990-1999 as an unpublished work by Bitstream Inc.  All rights reserved.  Confidential.
</metadata>
<defs>
<font id="Humanist777BT-BoldB" horiz-adv-x="500" >
  <font-face 
    font-family="Humanist 777"
    font-weight="700"
    font-stretch="normal"
    units-per-em="1000"
    panose-1="0 0 0 0 0 0 0 0 0 0"
    ascent="800"
    descent="-200"
    x-height="507"
    cap-height="694"
    bbox="-143 -236 1273 980"
    underline-thickness="75"
    underline-position="-67"
    stemh="94"
    stemv="130"
    unicode-range="U+0020-FB02"
  />
<missing-glyph horiz-adv-x="296" 
 />
    <glyph glyph-name=".notdef" horiz-adv-x="296" 
 />
    <glyph glyph-name="space" unicode=" " horiz-adv-x="296" 
 />
    <glyph glyph-name="exclam" unicode="!" horiz-adv-x="413" 
d="M137 694h140l-21 -486h-98zM141 128h131v-128h-131v128z" />
    <glyph glyph-name="quotedbl" unicode="&#x22;" horiz-adv-x="331" 
d="M39 702h94v-273h-94v273zM198 702h94v-273h-94v273z" />
    <glyph glyph-name="numbersign" unicode="#" horiz-adv-x="769" 
d="M346 715h108l-71 -203h118l72 203h108l-72 -203h138l-36 -98h-137l-41 -118h142l-35 -98h-142l-72 -203h-108l72 203h-119l-73 -203h-107l71 203h-140l37 98h138l42 118h-146l36 98h145zM346 414l-43 -118h123l42 118h-122z" />
    <glyph glyph-name="dollar" unicode="$" horiz-adv-x="593" 
d="M277 782h52v-84c56 -1 112 -9 170 -25l-12 -102c-49 24 -101 35 -158 35v-189c144 -43 213 -108 213 -210c0 -109 -79 -189 -217 -206v-85h-52v84h-10c-61 0 -120 9 -178 28l11 113c58 -27 118 -42 177 -42v213c-134 37 -199 100 -199 197c0 105 72 173 203 187v86z
M325 297v-194c58 9 92 45 92 93c0 46 -30 78 -92 101zM277 603c-52 -11 -82 -42 -82 -81c0 -44 27 -72 82 -91v172z" />
    <glyph glyph-name="percent" unicode="%" horiz-adv-x="905" 
d="M204 709c101 0 168 -74 168 -195c0 -120 -68 -195 -168 -195s-167 75 -167 195c0 121 66 195 167 195zM596 709h84l-368 -723h-84zM205 637c-43 0 -67 -42 -67 -123s22 -123 66 -123s67 42 67 123c0 82 -22 123 -66 123zM703 376c101 0 168 -73 168 -195
c0 -120 -68 -195 -168 -195s-168 74 -168 195c0 122 67 195 168 195zM703 304c-43 0 -67 -42 -67 -123s24 -123 67 -123c44 0 67 42 67 123c0 82 -23 123 -67 123z" />
    <glyph glyph-name="ampersand" unicode="&#x26;" horiz-adv-x="728" 
d="M306 426c70 32 105 71 105 113c0 45 -33 78 -89 78c-54 0 -90 -32 -90 -75c0 -35 25 -71 74 -116zM368 362l145 -153c36 46 56 104 59 169h111c-3 -92 -35 -174 -96 -245l128 -133h-151l-57 62c-55 -49 -126 -74 -207 -74c-153 0 -246 84 -246 205c0 85 47 149 142 192
c-55 55 -83 106 -83 161c0 95 81 162 211 162c125 0 201 -63 201 -160c0 -77 -53 -140 -157 -186zM264 316c-56 -31 -84 -74 -84 -120c0 -64 54 -116 132 -116c48 0 90 19 125 54z" />
    <glyph glyph-name="quoteright" unicode="&#x2019;" horiz-adv-x="297" 
d="M123 694h130l-89 -246h-104z" />
    <glyph glyph-name="parenleft" unicode="(" horiz-adv-x="353" 
d="M228 755h99c-94 -149 -141 -293 -141 -444s47 -294 141 -443h-99c-108 144 -161 292 -161 443s53 300 161 444z" />
    <glyph glyph-name="parenright" unicode=")" horiz-adv-x="353" 
d="M26 755h98c108 -144 162 -293 162 -444s-54 -299 -162 -443h-98c94 150 141 292 141 443s-47 294 -141 444z" />
    <glyph glyph-name="asterisk" unicode="*" 
d="M200 745h100l-26 -167l150 77l32 -98l-167 -26l120 -119l-83 -61l-76 153l-76 -153l-83 61l120 119l-167 26l31 98l151 -77z" />
    <glyph glyph-name="plus" unicode="+" horiz-adv-x="833" 
d="M367 596h99v-249h243v-97h-243v-250h-99v250h-243v97h243v249z" />
    <glyph glyph-name="comma" unicode="," horiz-adv-x="296" 
d="M100 129h130l-89 -246h-104z" />
    <glyph glyph-name="hyphen" unicode="-" horiz-adv-x="338" 
d="M40 332h257v-102h-257v102z" />
    <glyph glyph-name="period" unicode="." horiz-adv-x="296" 
d="M83 130h130v-130h-130v130z" />
    <glyph glyph-name="slash" unicode="/" horiz-adv-x="278" 
d="M213 709h89l-266 -802h-87z" />
    <glyph glyph-name="zero" unicode="0" horiz-adv-x="593" 
d="M296 709c161 0 249 -124 249 -362s-88 -361 -249 -361s-249 123 -249 361s89 362 249 362zM296 613c-76 0 -117 -89 -117 -264c0 -176 42 -265 118 -265c74 0 116 88 116 259c0 179 -40 270 -117 270z" />
    <glyph glyph-name="one" unicode="1" horiz-adv-x="593" 
d="M288 694h109v-694h-126v552l-121 -93l-65 88z" />
    <glyph glyph-name="two" unicode="2" horiz-adv-x="593" 
d="M222 102h298v-102h-461v105c201 182 310 300 310 397c0 56 -46 97 -119 97c-48 0 -106 -16 -163 -49l-8 114c75 30 142 44 197 44c140 0 227 -85 227 -194c0 -123 -98 -246 -281 -412z" />
    <glyph glyph-name="three" unicode="3" horiz-adv-x="593" 
d="M372 363c94 -21 144 -80 144 -160c0 -122 -108 -209 -293 -209c-61 0 -120 9 -176 26l10 114c44 -24 95 -36 152 -36c106 0 169 50 169 116c0 61 -47 95 -140 95h-79v97h77c86 0 138 39 138 95c0 55 -54 98 -142 98c-45 0 -97 -10 -150 -32l-7 108c68 15 131 34 189 34
c153 0 242 -84 242 -193c0 -74 -48 -132 -134 -153z" />
    <glyph glyph-name="four" unicode="4" horiz-adv-x="593" 
d="M317 694h157v-450h98v-98h-98v-146h-127v146h-320v118zM353 588l-225 -344h219z" />
    <glyph glyph-name="five" unicode="5" horiz-adv-x="593" 
d="M93 694h412v-96h-290l-4 -159c29 5 54 8 74 8c158 0 248 -84 248 -216c0 -143 -111 -238 -291 -238c-53 0 -108 9 -162 27v116c48 -26 101 -38 155 -38c102 0 163 53 163 132c0 70 -62 123 -165 123c-35 0 -84 -7 -145 -21z" />
    <glyph glyph-name="six" unicode="6" horiz-adv-x="593" 
d="M521 679l-11 -107c-38 21 -83 33 -130 33c-123 0 -195 -86 -195 -242c37 52 91 80 157 80c120 0 209 -92 209 -219c0 -134 -103 -238 -237 -238c-161 0 -254 119 -254 337c0 245 115 381 310 381c49 0 99 -8 151 -25zM308 344c-63 0 -111 -53 -111 -132
c0 -77 47 -129 113 -129c65 0 112 49 112 126c0 82 -46 135 -114 135z" />
    <glyph glyph-name="seven" unicode="7" horiz-adv-x="593" 
d="M50 694h465v-113l-258 -581h-147l271 593h-331v101z" />
    <glyph glyph-name="eight" unicode="8" horiz-adv-x="593" 
d="M398 366c99 -37 150 -99 150 -182c0 -116 -96 -198 -256 -198c-151 0 -247 85 -247 201c0 81 55 147 151 173c-82 33 -127 97 -127 172c0 103 91 176 237 176c136 0 221 -73 221 -170c0 -73 -46 -136 -129 -172zM287 318c-76 -30 -114 -73 -114 -125
c0 -60 51 -111 122 -111s121 48 121 113c0 50 -44 93 -129 123zM304 403c67 34 101 76 101 122c0 52 -42 92 -101 92c-70 0 -113 -43 -113 -97c0 -50 38 -88 113 -117z" />
    <glyph glyph-name="nine" unicode="9" horiz-adv-x="593" 
d="M298 612c-70 0 -117 -53 -117 -129c0 -81 46 -132 111 -132c67 0 114 51 114 136c0 73 -48 125 -108 125zM82 16l11 106c38 -21 82 -32 130 -32c124 0 194 84 195 241c-37 -52 -92 -79 -157 -79c-121 0 -209 92 -209 219c0 134 103 238 237 238c161 0 254 -119 254 -338
c0 -244 -115 -381 -310 -381c-50 0 -101 9 -151 26z" />
    <glyph glyph-name="colon" unicode=":" horiz-adv-x="297" 
d="M83 509h130v-130h-130v130zM83 130h130v-130h-130v130z" />
    <glyph glyph-name="semicolon" unicode=";" horiz-adv-x="297" 
d="M93 507h131v-130h-131v130zM98 129h130l-89 -246h-104z" />
    <glyph glyph-name="less" unicode="&#x3c;" horiz-adv-x="833" 
d="M704 583v-107l-436 -178l436 -178v-107l-575 237v97z" />
    <glyph glyph-name="equal" unicode="=" horiz-adv-x="833" 
d="M124 452h585v-97h-585v97zM124 242h585v-97h-585v97z" />
    <glyph glyph-name="greater" unicode="&#x3e;" horiz-adv-x="833" 
d="M129 583l575 -236v-97l-575 -237v107l437 178l-437 178v107z" />
    <glyph glyph-name="question" unicode="?" horiz-adv-x="533" 
d="M295 205h-110c-1 8 -1 16 -1 24c0 45 17 82 48 123c45 60 93 101 93 159c0 57 -47 96 -125 96c-41 0 -87 -11 -138 -32l-3 105c58 18 111 26 163 26c146 0 232 -71 232 -175c0 -65 -35 -111 -85 -172c-44 -52 -75 -91 -75 -142c0 -4 1 -8 1 -12zM172 128h131v-128h-131
v128z" />
    <glyph glyph-name="at" unicode="@" horiz-adv-x="1000" 
d="M594 342c-8 53 -38 81 -85 81c-73 0 -138 -91 -138 -206c0 -60 27 -92 77 -92c52 0 103 42 120 111zM570 133c-36 -55 -82 -80 -145 -80c-104 0 -158 58 -158 166c0 158 105 275 236 275c53 0 91 -22 115 -64l26 48h87l-72 -292c-2 -8 -3 -15 -3 -20c0 -22 15 -34 46 -34
c24 0 53 12 79 37c56 52 85 123 85 206c0 152 -128 268 -324 268c-92 0 -171 -22 -236 -66c-110 -74 -172 -189 -172 -322c0 -200 146 -329 371 -329c106 0 209 33 295 93l40 -57c-100 -75 -212 -113 -333 -113c-127 0 -232 33 -312 94c-101 78 -151 180 -151 311
c0 109 35 209 101 290c96 117 233 179 400 179c113 0 212 -32 281 -85c88 -68 131 -155 131 -265c0 -108 -44 -201 -124 -265c-46 -37 -101 -56 -158 -56c-69 0 -104 27 -105 81z" />
    <glyph glyph-name="A" unicode="A" horiz-adv-x="681" 
d="M265 694h165l268 -694h-147l-58 164h-302l-60 -164h-136zM345 578l-116 -312h228z" />
    <glyph glyph-name="B" unicode="B" horiz-adv-x="615" 
d="M77 694h230c161 0 244 -63 244 -180c0 -74 -46 -131 -129 -153c96 -20 148 -80 148 -168c0 -125 -91 -193 -268 -193h-225v694zM212 596v-191h65c91 0 137 34 137 95c0 63 -44 96 -129 96h-73zM212 308v-207h73c96 0 146 37 146 105c0 66 -46 102 -136 102h-83z" />
    <glyph glyph-name="C" unicode="C" horiz-adv-x="643" 
d="M609 672l-9 -110c-51 19 -103 40 -161 40c-153 0 -251 -103 -251 -259c0 -144 98 -250 257 -250c52 0 104 24 157 40l12 -110c-61 -16 -119 -37 -181 -37c-246 0 -386 144 -386 357c0 214 145 366 379 366c70 0 131 -24 183 -37z" />
    <glyph glyph-name="D" unicode="D" horiz-adv-x="720" 
d="M77 694h199c116 0 200 -16 254 -50c99 -63 149 -162 149 -296c0 -133 -50 -232 -151 -295c-60 -38 -147 -53 -263 -53h-188v694zM215 591v-484h79c154 0 243 90 243 243c0 155 -86 241 -247 241h-75z" />
    <glyph glyph-name="E" unicode="E" horiz-adv-x="569" 
d="M77 694h424v-100h-287v-184h272v-102h-272v-203h297v-105h-434v694z" />
    <glyph glyph-name="F" unicode="F" horiz-adv-x="513" 
d="M77 694h404v-101h-266v-189h254v-102h-254v-302h-138v694z" />
    <glyph glyph-name="G" unicode="G" horiz-adv-x="739" 
d="M645 672l-14 -109c-52 18 -113 42 -178 42c-158 0 -262 -112 -262 -262c0 -143 98 -250 252 -250c31 0 61 12 90 21v177h-128v98h257v-358c-66 -22 -141 -45 -223 -45c-246 0 -389 142 -389 358c0 220 145 365 398 365c63 0 130 -23 197 -37z" />
    <glyph glyph-name="H" unicode="H" horiz-adv-x="699" 
d="M77 694h137v-281h270v281h137v-694h-137v307h-270v-307h-137v694z" />
    <glyph glyph-name="I" unicode="I" horiz-adv-x="292" 
d="M77 694h137v-694h-137v694z" />
    <glyph glyph-name="J" unicode="J" horiz-adv-x="396" 
d="M181 694h137v-449c0 -175 -62 -255 -213 -255c-28 0 -60 4 -96 13v116c21 -8 42 -13 63 -13c92 0 109 55 109 171v417z" />
    <glyph glyph-name="K" unicode="K" horiz-adv-x="632" 
d="M77 694h137v-303l255 303h157l-286 -322l313 -372h-173l-266 332v-332h-137v694z" />
    <glyph glyph-name="L" unicode="L" horiz-adv-x="504" 
d="M77 694h137v-588h278v-106h-415v694z" />
    <glyph glyph-name="M" unicode="M" horiz-adv-x="947" 
d="M77 694h208l168 -482c8 -24 16 -62 20 -115c3 48 9 87 19 115l174 482h205v-694h-131v513c0 40 3 82 9 124c-13 -55 -23 -89 -27 -101l-194 -536h-122l-190 531c-10 29 -19 65 -26 106c5 -65 8 -107 8 -125v-512h-121v694z" />
    <glyph glyph-name="N" unicode="N" horiz-adv-x="734" 
d="M77 694h172l255 -485c12 -24 28 -66 46 -126c-12 71 -17 124 -17 159v452h124v-694h-169l-263 496c-13 24 -27 64 -41 120c12 -90 17 -145 17 -166v-450h-124v694z" />
    <glyph glyph-name="O" unicode="O" horiz-adv-x="751" 
d="M375 709c203 0 329 -136 329 -362c0 -227 -126 -361 -329 -361s-328 134 -328 361s125 362 328 362zM375 606c-111 0 -189 -98 -189 -257c0 -160 78 -258 189 -258s190 99 190 258s-79 257 -190 257z" />
    <glyph glyph-name="P" unicode="P" horiz-adv-x="572" 
d="M78 694h206c178 0 265 -68 265 -216c0 -133 -92 -214 -260 -214h-74v-264h-137v694zM215 596v-234h56c90 0 138 42 138 116c0 75 -46 118 -130 118h-64z" />
    <glyph glyph-name="Q" unicode="Q" horiz-adv-x="751" 
d="M375 606c-111 0 -189 -98 -189 -257c0 -160 78 -258 189 -258s190 99 190 258s-79 257 -190 257zM529 19l155 -151h-158l-116 120c-9 0 -18 -1 -26 -1c-214 0 -337 130 -337 360c0 227 125 362 328 362c202 0 329 -135 329 -362c0 -159 -57 -266 -175 -328z" />
    <glyph glyph-name="R" unicode="R" horiz-adv-x="610" 
d="M77 694h227c169 0 254 -59 254 -179c0 -88 -51 -149 -145 -169c53 -17 68 -52 89 -105l96 -241h-144l-78 210c-23 63 -55 81 -121 81h-43v-291h-135v694zM212 597v-209h70c90 0 139 39 139 105c0 73 -48 104 -149 104h-60z" />
    <glyph glyph-name="S" unicode="S" horiz-adv-x="559" 
d="M482 676l-12 -109c-49 22 -100 35 -153 35c-76 0 -117 -30 -117 -77c0 -49 47 -69 128 -110c116 -59 180 -110 180 -213c0 -122 -100 -218 -266 -218c-54 0 -117 21 -183 41l13 119c59 -29 117 -53 170 -53c79 0 124 42 124 90c0 54 -48 77 -123 118
c-47 25 -93 47 -130 87c-32 34 -49 78 -49 126c0 112 92 197 254 197c56 0 110 -19 164 -33z" />
    <glyph glyph-name="T" unicode="T" horiz-adv-x="526" 
d="M11 694h505v-107h-185v-587h-137v587h-183v107z" />
    <glyph glyph-name="U" unicode="U" horiz-adv-x="705" 
d="M73 694h137v-407c0 -132 42 -195 140 -195c97 0 147 67 147 200v402h129v-403c0 -203 -93 -305 -278 -305c-181 0 -275 101 -275 299v409z" />
    <glyph glyph-name="V" unicode="V" horiz-adv-x="663" 
d="M10 694h145l182 -573l184 573h139l-247 -694h-166z" />
    <glyph glyph-name="W" unicode="W" horiz-adv-x="964" 
d="M11 694h139l109 -520c2 -9 7 -45 13 -107c2 44 6 79 11 104l114 523h175l116 -522c3 -15 8 -51 13 -105c2 42 7 76 12 101l114 526h128l-170 -694h-174l-118 534c-5 23 -9 56 -12 99c-3 -46 -8 -80 -12 -99l-116 -534h-173z" />
    <glyph glyph-name="X" unicode="X" horiz-adv-x="657" 
d="M29 694h160l148 -261l144 261h149l-218 -330l241 -364h-161l-167 288l-170 -288h-151l244 364z" />
    <glyph glyph-name="Y" unicode="Y" horiz-adv-x="601" 
d="M-21 694h157l169 -313l169 313h148l-254 -419v-275h-137v273z" />
    <glyph glyph-name="Z" unicode="Z" horiz-adv-x="570" 
d="M49 694h484v-114l-355 -475h359v-105h-499v120l352 471h-341v103z" />
    <glyph glyph-name="bracketleft" unicode="[" horiz-adv-x="360" 
d="M94 754h212v-83h-104v-720h104v-83h-212v886z" />
    <glyph glyph-name="backslash" unicode="\" horiz-adv-x="278" 
d="M-24 709h89l264 -802h-88z" />
    <glyph glyph-name="bracketright" unicode="]" horiz-adv-x="360" 
d="M53 754h213v-886h-213v83h105v720h-105v83z" />
    <glyph glyph-name="asciicircum" unicode="^" horiz-adv-x="1000" 
d="M438 713h123l235 -274h-115l-181 181l-182 -181h-115z" />
    <glyph glyph-name="underscore" unicode="_" 
d="M0 -136h500v-100h-500v100z" />
    <glyph glyph-name="quoteleft" unicode="&#x2018;" horiz-adv-x="297" 
d="M145 694h104l-63 -247h-130z" />
    <glyph glyph-name="a" unicode="a" horiz-adv-x="563" 
d="M497 289v-289h-115l-2 82c-40 -59 -97 -95 -172 -95c-104 0 -170 68 -170 160c0 112 89 169 267 169h67v7c0 70 -46 109 -125 109c-44 0 -92 -13 -145 -41l-2 93c60 24 118 36 178 36c153 0 219 -72 219 -231zM326 242c-107 0 -160 -30 -160 -88c0 -43 32 -75 83 -75
c69 0 123 53 123 136v27h-46z" />
    <glyph glyph-name="b" unicode="b" horiz-adv-x="635" 
d="M74 748h131v-317c38 58 95 89 167 89c130 0 217 -100 217 -258c0 -163 -92 -270 -217 -270c-78 0 -142 38 -180 110v-102h-118v748zM335 422c-78 0 -130 -61 -130 -166c0 -102 51 -164 126 -164c72 0 122 61 122 161c0 107 -50 169 -118 169z" />
    <glyph glyph-name="c" unicode="c" horiz-adv-x="490" 
d="M453 494l-10 -102c-33 13 -71 26 -102 26c-100 0 -163 -68 -163 -163c0 -96 64 -166 161 -166c40 0 76 14 112 33l5 -104c-44 -15 -92 -31 -142 -31c-167 0 -272 108 -272 271c0 147 109 262 271 262c55 0 103 -17 140 -26z" />
    <glyph glyph-name="d" unicode="d" horiz-adv-x="635" 
d="M430 748h130v-748h-117v102c-41 -73 -102 -110 -183 -110c-121 0 -214 107 -214 270c0 158 88 258 211 258c77 0 133 -29 173 -89v317zM300 422c-67 0 -119 -62 -119 -166s49 -164 122 -164c75 0 126 61 126 164c0 105 -51 166 -129 166z" />
    <glyph glyph-name="e" unicode="e" horiz-adv-x="551" 
d="M407 299c-7 87 -51 136 -116 136c-66 0 -113 -49 -123 -136h239zM525 259v-41h-357c7 -85 69 -138 166 -138c52 0 102 12 149 37v-100c-47 -19 -104 -30 -172 -30c-169 0 -270 103 -270 275c0 154 102 258 251 258c147 0 233 -96 233 -261z" />
    <glyph glyph-name="f" unicode="f" horiz-adv-x="390" 
d="M384 748l-7 -95c-17 6 -33 10 -47 10c-51 0 -74 -33 -74 -101v-55h120v-97h-120v-410h-129v410h-106v97h106v65c0 122 62 186 179 186c27 0 53 -3 78 -10z" />
    <glyph glyph-name="g" unicode="g" horiz-adv-x="628" 
d="M438 420v87h121v-445c0 -188 -93 -280 -282 -280c-61 0 -121 11 -178 32l8 105c54 -27 108 -41 158 -41c104 0 167 60 167 163v55c-45 -63 -99 -94 -169 -94c-130 0 -219 101 -219 256c0 157 90 262 218 262c77 0 134 -33 176 -100zM302 421c-70 0 -120 -60 -120 -157
c0 -101 50 -161 121 -161c70 0 124 61 124 155c0 103 -50 163 -125 163z" />
    <glyph glyph-name="h" unicode="h" horiz-adv-x="622" 
d="M76 748h130v-317c36 59 94 89 169 89c118 0 181 -74 181 -218v-302h-131v274c0 93 -31 137 -100 137c-70 0 -119 -57 -119 -159v-252h-130v748z" />
    <glyph glyph-name="i" unicode="i" horiz-adv-x="278" 
d="M72 734h134v-126h-134v126zM74 507h130v-507h-130v507z" />
    <glyph glyph-name="j" unicode="j" horiz-adv-x="278" 
d="M72 734h134v-126h-134v126zM74 507h130v-520c0 -137 -49 -204 -157 -204c-28 0 -55 2 -81 8l5 90c12 -2 22 -3 31 -3c57 0 72 36 72 116v513z" />
    <glyph glyph-name="k" unicode="k" horiz-adv-x="545" 
d="M76 748h130v-444l172 203h146l-200 -218l223 -289h-159l-182 266v-266h-130v748z" />
    <glyph glyph-name="l" unicode="l" horiz-adv-x="278" 
d="M74 748h130v-748h-130v748z" />
    <glyph glyph-name="m" unicode="m" horiz-adv-x="936" 
d="M523 411c39 72 99 108 178 108c106 0 169 -75 169 -217v-302h-130v274c0 91 -27 135 -87 135c-69 0 -115 -56 -115 -157v-252h-130v274c0 91 -28 135 -88 135c-69 0 -115 -56 -115 -157v-252h-129v507h118v-92c38 69 97 104 175 104c69 0 126 -39 154 -108z" />
    <glyph glyph-name="n" unicode="n" horiz-adv-x="622" 
d="M556 302v-302h-131v274c0 93 -31 137 -100 137c-70 0 -119 -57 -119 -159v-252h-130v507h119v-92c38 69 100 105 180 105c118 0 181 -74 181 -218z" />
    <glyph glyph-name="o" unicode="o" horiz-adv-x="622" 
d="M311 520c168 0 270 -100 270 -266s-103 -267 -270 -267s-269 101 -269 267s101 266 269 266zM311 426c-77 0 -133 -67 -133 -171s56 -170 133 -170c78 0 133 65 133 170s-55 171 -133 171z" />
    <glyph glyph-name="p" unicode="p" horiz-adv-x="635" 
d="M337 420c-79 0 -131 -61 -131 -165s52 -165 125 -165c74 0 125 61 125 168c0 100 -49 162 -119 162zM206 77v-286h-130v716h117v-97c39 72 103 110 183 110c126 0 215 -100 215 -263s-93 -268 -216 -268c-74 0 -131 30 -169 88z" />
    <glyph glyph-name="q" unicode="q" horiz-adv-x="635" 
d="M442 410v97h117v-716h-130v286c-38 -57 -96 -88 -166 -88c-129 0 -220 104 -220 267s90 264 219 264c76 0 141 -38 180 -110zM298 420c-70 0 -119 -61 -119 -165c0 -103 52 -165 125 -165s124 61 124 162c0 107 -51 168 -130 168z" />
    <glyph glyph-name="r" unicode="r" horiz-adv-x="395" 
d="M388 514l-5 -117c-15 5 -30 7 -45 7c-85 0 -132 -57 -132 -167v-237h-130v507h117v-101c32 75 82 113 150 113c13 0 28 -2 45 -5z" />
    <glyph glyph-name="s" unicode="s" horiz-adv-x="456" 
d="M398 491l-10 -96c-44 23 -88 35 -131 35c-48 0 -73 -17 -73 -46c0 -37 37 -50 93 -75c95 -42 143 -80 143 -157c0 -94 -79 -157 -215 -157c-56 0 -110 9 -157 26l7 100c49 -24 100 -36 149 -36c53 0 81 19 81 49c0 38 -39 57 -103 89c-81 40 -128 74 -128 146
c0 85 77 151 205 151c44 0 91 -14 139 -29z" />
    <glyph glyph-name="t" unicode="t" horiz-adv-x="402" 
d="M250 672v-165h122v-96h-122v-222c0 -73 20 -106 75 -106c14 0 31 3 50 9l2 -92c-32 -8 -63 -11 -90 -11c-123 0 -168 58 -168 192v230h-100v96h106v123z" />
    <glyph glyph-name="u" unicode="u" horiz-adv-x="622" 
d="M65 507h131v-269c0 -93 31 -137 100 -137c76 0 119 61 119 180v226h131v-507h-119v97c-38 -69 -100 -105 -180 -105c-118 0 -182 74 -182 218v297z" />
    <glyph glyph-name="v" unicode="v" horiz-adv-x="528" 
d="M12 507h140l121 -390l124 390h130l-184 -507h-150z" />
    <glyph glyph-name="w" unicode="w" horiz-adv-x="864" 
d="M15 507h139l90 -360c3 -13 7 -40 10 -81c4 46 8 73 10 80l99 361h158l97 -363c3 -11 6 -37 9 -78c3 43 5 70 7 77l97 364h127l-161 -507h-149l-102 379c-4 15 -8 39 -9 70c-4 -40 -7 -62 -9 -68l-104 -381h-151z" />
    <glyph glyph-name="x" unicode="x" horiz-adv-x="512" 
d="M21 507h153l93 -170l96 170h142l-161 -239l172 -268h-153l-105 191l-110 -191h-145l178 265z" />
    <glyph glyph-name="y" unicode="y" horiz-adv-x="531" 
d="M12 507h141l126 -388l123 388h131l-200 -530c-50 -134 -102 -195 -216 -195c-19 0 -44 3 -74 8l11 102c16 -5 30 -7 42 -7c53 0 85 30 116 97z" />
    <glyph glyph-name="z" unicode="z" horiz-adv-x="484" 
d="M47 507h402v-104l-272 -305h272v-98h-411v111l266 298h-257v98z" />
    <glyph glyph-name="braceleft" unicode="{" 
d="M431 721v-102c-8 0 -16 1 -23 1c-72 0 -84 -25 -84 -98v-117c0 -88 -18 -127 -101 -146c83 -19 101 -57 101 -145v-118c0 -73 12 -97 84 -97c7 0 15 1 23 1v-102c-13 0 -25 -1 -37 -1c-60 0 -104 6 -137 24c-47 27 -51 71 -51 142v123c0 88 -29 123 -109 123
c-6 0 -13 -1 -20 -1v102c7 0 14 -1 20 -1c80 0 109 36 109 124v122c0 71 4 116 51 143c33 18 77 24 137 24c12 0 24 -1 37 -1z" />
    <glyph glyph-name="bar" unicode="|" 
d="M200 764h101v-1000h-101v1000z" />
    <glyph glyph-name="braceright" unicode="}" 
d="M70 721h33c62 0 108 -5 141 -24c46 -26 51 -71 51 -142v-123c0 -88 29 -123 109 -123c6 0 13 1 20 1v-102h-18c-82 0 -111 -33 -111 -122v-123c0 -71 -4 -116 -51 -142c-33 -18 -77 -24 -137 -24c-12 0 -24 1 -37 1v102c8 0 16 -1 23 -1c71 0 84 24 84 97v117
c0 88 17 127 101 146c-83 19 -101 58 -101 146v118c0 73 -13 97 -84 97c-7 0 -15 -1 -23 -1v102z" />
    <glyph glyph-name="asciitilde" unicode="~" horiz-adv-x="833" 
d="M747 392v-108c-65 -44 -124 -67 -185 -67c-30 0 -60 5 -90 15c-69 23 -130 49 -197 49c-59 0 -118 -27 -188 -77v108c70 47 133 70 189 70c58 0 102 -15 144 -29c48 -16 93 -36 144 -36c59 0 116 26 183 75z" />
    <glyph glyph-name="exclamdown" unicode="&#xa1;" horiz-adv-x="413" 
d="M141 694h131v-127h-131v127zM157 486h98l21 -486h-140z" />
    <glyph glyph-name="cent" unicode="&#xa2;" horiz-adv-x="593" 
d="M447 651h53l-41 -131c16 -4 29 -8 40 -12l-11 -106c-17 9 -36 17 -58 23l-97 -311c19 -6 36 -9 52 -9c38 0 75 10 111 29l3 -109c-37 -16 -82 -24 -134 -24c-23 0 -45 2 -66 6l-42 -138h-53l47 153c-105 34 -165 124 -165 247c0 156 113 263 277 263c14 0 29 0 46 -2z
M379 430c-94 -2 -156 -69 -156 -165c0 -56 22 -99 63 -127z" />
    <glyph glyph-name="sterling" unicode="&#xa3;" horiz-adv-x="593" 
d="M544 690l-7 -102c-30 14 -59 20 -88 20c-99 0 -146 -65 -146 -184v-15h155v-75h-155v-232h229v-102h-454v102h98v232h-84v75h84c0 8 -1 17 -1 25c0 182 86 275 255 275c33 0 71 -7 114 -19z" />
    <glyph glyph-name="fraction" unicode="&#x2044;" horiz-adv-x="167" 
d="M226 709h83l-367 -723h-85z" />
    <glyph glyph-name="yen" unicode="&#xa5;" horiz-adv-x="594" 
d="M-18 694h143l175 -329l177 329h133l-149 -245h96v-58h-132l-54 -91h186v-58h-201v-242h-122v242h-202v58h186l-55 91h-131v58h96z" />
    <glyph glyph-name="florin" unicode="&#x192;" horiz-adv-x="593" 
d="M556 699l-20 -94c-19 13 -39 20 -57 20c-38 0 -63 -37 -78 -110l-18 -86h106v-94h-126l-59 -286c-35 -171 -85 -255 -207 -255c-27 0 -57 5 -88 16l19 94c24 -10 41 -15 50 -15c52 0 72 39 89 122l67 324h-109v94h128l24 113c25 119 84 178 179 178c36 0 72 -8 100 -21z
" />
    <glyph glyph-name="section" unicode="&#xa7;" 
d="M436 680l-14 -93c-49 21 -95 31 -136 31c-59 0 -95 -27 -95 -62c0 -42 43 -58 116 -96c107 -55 171 -96 171 -183c0 -53 -28 -100 -83 -137c38 -33 58 -70 58 -112c0 -92 -80 -158 -218 -158c-49 0 -112 10 -182 33l15 97c54 -25 106 -37 152 -37c65 0 105 30 105 68
c0 43 -42 58 -108 93c-113 60 -176 103 -176 181c0 61 28 103 90 139c-43 31 -64 68 -64 112c0 91 75 153 206 153c26 0 63 -4 109 -14c17 -4 35 -9 54 -15zM199 409c-34 -23 -51 -50 -51 -80c0 -56 60 -91 177 -148c30 27 45 50 45 78c0 58 -59 89 -171 150z" />
    <glyph glyph-name="currency" unicode="&#xa4;" horiz-adv-x="593" 
d="M59 300h71c-1 14 -1 28 -1 43c0 16 0 33 1 48h-77l14 58h70c26 157 113 260 263 260c54 0 113 -23 142 -37l-7 -110c-25 15 -74 40 -125 40c-89 0 -128 -58 -142 -153h254l-15 -58h-245c-1 -15 -1 -31 -1 -48c0 -15 0 -29 1 -43h231l-14 -58h-211
c14 -90 55 -149 147 -149c46 0 95 27 121 40l10 -110c-32 -14 -86 -37 -141 -37c-158 0 -244 100 -269 256h-91z" />
    <glyph glyph-name="quotesingle" unicode="'" horiz-adv-x="172" 
d="M39 702h94v-273h-94v273z" />
    <glyph glyph-name="quotedblleft" unicode="&#x201c;" horiz-adv-x="521" 
d="M145 694h104l-63 -247h-130zM369 694h104l-62 -247h-131z" />
    <glyph glyph-name="guillemotleft" unicode="&#xab;" horiz-adv-x="536" 
d="M157 466h111l-117 -204l116 -203h-111l-123 203zM391 466h112l-117 -204l115 -203h-110l-123 203z" />
    <glyph glyph-name="guilsinglleft" unicode="&#x2039;" horiz-adv-x="301" 
d="M157 466h111l-117 -204l116 -203h-111l-123 203z" />
    <glyph glyph-name="guilsinglright" unicode="&#x203a;" horiz-adv-x="301" 
d="M34 466h111l123 -204l-124 -203h-111l117 203z" />
    <glyph glyph-name="fi" unicode="&#xfb01;" horiz-adv-x="667" 
d="M384 748l-7 -95c-17 6 -33 10 -47 10c-51 0 -74 -33 -74 -101v-55h120v-97h-120v-410h-129v410h-106v97h106v65c0 122 62 186 179 186c27 0 53 -3 78 -10zM461 734h134v-126h-134v126zM462 507h131v-507h-131v507z" />
    <glyph glyph-name="fl" unicode="&#xfb02;" horiz-adv-x="667" 
d="M384 748l-7 -95c-17 6 -33 10 -47 10c-51 0 -74 -33 -74 -101v-55h120v-97h-120v-410h-129v410h-106v97h106v65c0 122 62 186 179 186c27 0 53 -3 78 -10zM462 748h131v-748h-131v748z" />
    <glyph glyph-name="endash" unicode="&#x2013;" 
d="M0 319h500v-75h-500v75z" />
    <glyph glyph-name="dagger" unicode="&#x2020;" 
d="M190 699h118v-200h169v-99h-169v-528h-118v528h-166v99h166v200z" />
    <glyph glyph-name="daggerdbl" unicode="&#x2021;" 
d="M191 699h115v-185h169v-96h-169v-264h169v-96h-169v-184h-115v184h-166v96h166v264h-166v96h166v185z" />
    <glyph glyph-name="periodcentered" unicode="&#xb7;" horiz-adv-x="296" 
d="M148 416c39 0 69 -31 69 -69s-32 -68 -69 -68s-68 31 -68 68s30 69 68 69z" />
    <glyph glyph-name="paragraph" unicode="&#xb6;" 
d="M480 722v-54h-55v-668h-74v668h-78v-668h-74v383c-111 4 -179 73 -179 169c0 100 73 170 191 170h269z" />
    <glyph glyph-name="bullet" unicode="&#x2022;" horiz-adv-x="590" 
d="M150 372c0 80 65 144 145 144c79 0 144 -64 144 -144c0 -79 -65 -145 -145 -145s-144 65 -144 145z" />
    <glyph glyph-name="quotesinglbase" unicode="&#x201a;" horiz-adv-x="297" 
d="M101 129h130l-89 -246h-104z" />
    <glyph glyph-name="quotedblbase" unicode="&#x201e;" horiz-adv-x="521" 
d="M101 129h130l-89 -246h-104zM325 129h131l-89 -246h-105z" />
    <glyph glyph-name="quotedblright" unicode="&#x201d;" horiz-adv-x="521" 
d="M123 694h130l-89 -246h-104zM348 694h130l-89 -246h-104z" />
    <glyph glyph-name="guillemotright" unicode="&#xbb;" horiz-adv-x="536" 
d="M34 466h111l123 -204l-124 -203h-111l117 203zM268 466h111l123 -204l-124 -203h-111l117 203z" />
    <glyph glyph-name="ellipsis" unicode="&#x2026;" horiz-adv-x="1000" 
d="M102 130h130v-130h-130v130zM435 130h130v-130h-130v130zM769 130h130v-130h-130v130z" />
    <glyph glyph-name="perthousand" unicode="&#x2030;" horiz-adv-x="1306" 
d="M204 709c101 0 168 -74 168 -195c0 -120 -68 -195 -168 -195s-167 75 -167 195c0 121 66 195 167 195zM596 709h84l-368 -723h-84zM205 637c-43 0 -67 -42 -67 -123s22 -123 66 -123s67 42 67 123c0 82 -22 123 -66 123zM703 376c101 0 168 -73 168 -195
c0 -120 -68 -195 -168 -195s-168 74 -168 195c0 122 67 195 168 195zM1105 376c101 0 168 -73 168 -195c0 -120 -68 -195 -168 -195s-168 74 -168 195c0 122 67 195 168 195zM703 304c-43 0 -67 -42 -67 -123s24 -123 67 -123c44 0 67 42 67 123c0 82 -23 123 -67 123z
M1105 304c-43 0 -67 -42 -67 -123s24 -123 67 -123c44 0 67 42 67 123c0 82 -23 123 -67 123z" />
    <glyph glyph-name="questiondown" unicode="&#xbf;" horiz-adv-x="533" 
d="M226 694h130v-127h-130v127zM234 489h110c1 -8 1 -15 1 -22c0 -46 -17 -83 -48 -125c-45 -60 -94 -101 -94 -159c0 -55 49 -96 125 -96c41 0 88 11 139 32l3 -104c-58 -18 -112 -27 -164 -27c-146 0 -232 71 -232 175c0 64 35 111 85 172c44 52 76 92 76 143
c0 4 -1 7 -1 11z" />
    <glyph glyph-name="grave" unicode="`" 
d="M114 751h114l97 -176h-62z" />
    <glyph glyph-name="acute" unicode="&#xb4;" 
d="M272 751h114l-149 -176h-62z" />
    <glyph glyph-name="circumflex" unicode="&#x2c6;" 
d="M198 751h104l96 -176h-63l-85 109l-85 -109h-63z" />
    <glyph glyph-name="tilde" unicode="&#x2dc;" 
d="M353 722h50c-19 -75 -49 -110 -101 -110c-12 0 -23 1 -35 5l-45 14c-13 4 -23 5 -28 5c-24 0 -38 -12 -47 -37h-50c17 72 49 107 100 107c12 0 24 -1 37 -5l47 -14c9 -3 17 -5 27 -5c22 0 37 13 45 40z" />
    <glyph glyph-name="macron" unicode="&#xaf;" 
d="M110 696h280v-72h-280v72z" />
    <glyph glyph-name="breve" unicode="&#x2d8;" 
d="M104 733h54c4 -48 33 -69 92 -69s88 21 91 69h55c-7 -97 -53 -141 -146 -141c-92 0 -139 44 -146 141z" />
    <glyph glyph-name="dotaccent" unicode="&#x2d9;" 
d="M197 718h106v-116h-106v116z" />
    <glyph glyph-name="dieresis" unicode="&#xa8;" 
d="M115 715h101v-111h-101v111zM284 715h101v-111h-101v111z" />
    <glyph glyph-name="ring" unicode="&#x2da;" 
d="M250 818c71 0 127 -56 127 -126c0 -71 -56 -127 -127 -127s-126 56 -126 127s55 126 126 126zM250 755c-35 0 -63 -28 -63 -63s28 -63 63 -63s63 28 63 63s-28 63 -63 63z" />
    <glyph glyph-name="cedilla" unicode="&#xb8;" 
d="M209 0h46v-46h7c74 0 112 -31 112 -92c0 -60 -42 -93 -125 -93c-33 0 -76 7 -128 21v55c53 -14 95 -19 125 -19c35 0 51 12 51 37c0 29 -19 39 -62 39c-8 0 -17 0 -26 -1v99z" />
    <glyph glyph-name="hungarumlaut" unicode="&#x2dd;" 
d="M212 751h97l-114 -176h-47zM357 751h100l-129 -176h-50z" />
    <glyph glyph-name="ogonek" unicode="&#x2db;" 
d="M262 0h43c-42 -37 -63 -70 -63 -105c0 -27 13 -39 43 -39h46v-76h-37c-85 0 -125 24 -125 89c0 45 31 88 93 131z" />
    <glyph glyph-name="caron" unicode="&#x2c7;" 
d="M102 751h63l85 -109l85 109h63l-96 -176h-104z" />
    <glyph glyph-name="emdash" unicode="&#x2014;" horiz-adv-x="1000" 
d="M0 319h1000v-75h-1000v75z" />
    <glyph glyph-name="AE" unicode="&#xc6;" horiz-adv-x="938" 
d="M369 694h502v-101h-280v-183h263v-102h-263v-203h290v-105h-422v163h-253l-88 -163h-142zM442 602l-183 -337h200v337h-17z" />
    <glyph glyph-name="ordfeminine" unicode="&#xaa;" horiz-adv-x="422" 
d="M373 541v-202h-86l-2 57c-30 -41 -73 -66 -129 -66c-78 0 -127 47 -127 112c0 78 66 118 200 118h50v5c0 49 -34 76 -94 76c-33 0 -69 -9 -108 -28l-2 65c45 17 89 25 134 25c114 0 164 -50 164 -162zM245 508c-81 0 -120 -21 -120 -61c0 -30 24 -53 62 -53
c52 0 92 37 92 95v19h-34z" />
    <glyph glyph-name="Lslash" unicode="&#x141;" horiz-adv-x="523" 
d="M97 694h137v-244l139 97v-97l-139 -97v-247h278v-106h-415v291l-78 -54v97l78 54v306z" />
    <glyph glyph-name="Oslash" unicode="&#xd8;" horiz-adv-x="751" 
d="M671 737l60 -55l-90 -102c40 -60 63 -140 63 -236c0 -221 -129 -358 -321 -358c-93 0 -164 21 -216 68l-87 -96l-60 57l90 103c-41 60 -63 140 -63 236c0 217 130 355 321 355c87 0 158 -22 216 -68zM505 554c-35 37 -79 55 -133 55c-112 0 -192 -98 -192 -260
c0 -50 8 -94 22 -132zM549 479l-301 -337c29 -34 76 -54 129 -54c116 0 194 98 194 265c0 49 -7 90 -22 126z" />
    <glyph glyph-name="OE" unicode="&#x152;" horiz-adv-x="978" 
d="M578 694h333v-100h-280v-184h263v-102h-263v-203h290v-105h-361c-68 0 -128 -7 -180 -7c-214 0 -333 128 -333 353c0 229 125 356 352 356c57 0 117 -8 179 -8zM496 593c-36 7 -69 10 -97 10c-139 0 -213 -88 -213 -254s73 -256 209 -256c27 0 60 4 101 10v490z" />
    <glyph glyph-name="ordmasculine" unicode="&#xba;" horiz-adv-x="467" 
d="M233 703c126 0 203 -70 203 -186s-77 -187 -203 -187c-125 0 -201 71 -201 187s75 186 201 186zM233 637c-57 0 -99 -47 -99 -120c0 -72 42 -119 99 -119c59 0 100 46 100 119c0 74 -41 120 -100 120z" />
    <glyph glyph-name="ae" unicode="&#xe6;" horiz-adv-x="883" 
d="M446 445c43 49 104 75 181 75c145 0 230 -97 230 -261v-35h-357c7 -88 72 -144 167 -144c51 0 101 12 148 37v-100c-47 -19 -105 -30 -170 -30c-110 0 -184 40 -222 120c-46 -74 -118 -115 -207 -115c-111 0 -177 62 -177 158c0 110 89 166 266 166h67v5
c0 71 -42 112 -120 112c-47 0 -97 -14 -150 -42l-2 93c57 25 115 37 169 37c78 0 141 -25 177 -76zM372 242h-54c-101 0 -154 -33 -154 -88c0 -43 34 -75 87 -75c69 0 121 53 121 136v27zM500 307h239c-6 82 -51 130 -116 130s-114 -49 -123 -130z" />
    <glyph glyph-name="dotlessi" unicode="&#x131;" horiz-adv-x="278" 
d="M74 507h130v-507h-130v507z" />
    <glyph glyph-name="lslash" unicode="&#x142;" horiz-adv-x="307" 
d="M95 748h130v-289l74 51v-79l-74 -51v-380h-130v316l-74 -52v79l74 51v354z" />
    <glyph glyph-name="oslash" unicode="&#xf8;" horiz-adv-x="622" 
d="M540 559l57 -53l-70 -77c35 -44 53 -102 53 -173c0 -165 -104 -268 -263 -268c-66 0 -119 12 -161 40l-72 -78l-58 54l69 76c-36 51 -53 108 -53 174c0 164 103 266 271 266c60 0 110 -13 154 -40zM394 400c-23 20 -50 30 -85 30c-79 0 -137 -70 -137 -175
c0 -28 5 -54 15 -80zM437 337l-208 -226c22 -20 51 -30 85 -30c81 0 137 68 137 179c0 28 -4 53 -14 77z" />
    <glyph glyph-name="oe" unicode="&#x153;" horiz-adv-x="953" 
d="M509 434c45 56 110 85 189 85c144 0 230 -96 230 -260v-41h-358c7 -85 70 -138 167 -138c52 0 101 12 148 37v-100c-48 -19 -105 -30 -164 -30c-99 0 -173 33 -213 91c-52 -60 -120 -90 -205 -90c-160 0 -261 101 -261 265c0 165 100 267 262 267c90 0 160 -30 205 -86z
M570 299h239c-7 87 -51 136 -116 136s-114 -50 -123 -136zM178 255c0 -104 57 -170 131 -170c81 0 135 64 135 170c0 105 -56 171 -131 171c-80 0 -135 -66 -135 -171z" />
    <glyph glyph-name="germandbls" unicode="&#xdf;" horiz-adv-x="619" 
d="M416 397c106 -15 164 -80 164 -181c0 -136 -91 -223 -228 -223c-31 0 -63 3 -96 9l4 100c20 -7 41 -10 62 -10c75 0 124 51 124 128c0 78 -51 120 -147 120h-13v99c87 0 135 45 135 121c0 63 -40 106 -104 106c-83 0 -113 -60 -113 -185v-481h-131v498
c0 173 81 260 242 260c146 0 234 -79 234 -200c0 -82 -48 -141 -133 -161z" />
    <glyph glyph-name="Aacute" unicode="&#xc1;" horiz-adv-x="681" 
d="M265 694h165l268 -694h-147l-58 164h-302l-60 -164h-136zM345 578l-116 -312h228zM363 939h114l-149 -176h-62z" />
    <glyph glyph-name="Acircumflex" unicode="&#xc2;" horiz-adv-x="681" 
d="M265 694h165l268 -694h-147l-58 164h-302l-60 -164h-136zM345 578l-116 -312h228zM289 939h104l96 -176h-63l-85 109l-85 -109h-63z" />
    <glyph glyph-name="Adieresis" unicode="&#xc4;" horiz-adv-x="681" 
d="M265 694h165l268 -694h-147l-58 164h-302l-60 -164h-136zM345 578l-116 -312h228zM206 903h101v-111h-101v111zM375 903h101v-111h-101v111z" />
    <glyph glyph-name="Agrave" unicode="&#xc0;" horiz-adv-x="681" 
d="M265 694h165l268 -694h-147l-58 164h-302l-60 -164h-136zM345 578l-116 -312h228zM205 939h114l97 -176h-62z" />
    <glyph glyph-name="Aring" unicode="&#xc5;" horiz-adv-x="681" 
d="M346 980c71 0 127 -57 127 -127c0 -71 -56 -126 -127 -126s-126 55 -126 126s55 127 126 127zM347 916c-35 0 -63 -28 -63 -63s27 -62 63 -62s62 27 62 62s-27 63 -62 63zM265 694h165l268 -694h-147l-58 164h-302l-60 -164h-136zM345 578l-116 -312h228z" />
    <glyph glyph-name="Atilde" unicode="&#xc3;" horiz-adv-x="681" 
d="M265 694h165l268 -694h-147l-58 164h-302l-60 -164h-136zM345 578l-116 -312h228zM444 910h50c-19 -75 -49 -110 -101 -110c-12 0 -23 1 -35 5l-45 14c-13 4 -23 5 -28 5c-24 0 -38 -12 -47 -37h-50c17 72 49 107 100 107c12 0 24 -1 37 -5l47 -14c9 -3 17 -5 27 -5
c22 0 37 13 45 40z" />
    <glyph glyph-name="Ccedilla" unicode="&#xc7;" horiz-adv-x="643" 
d="M609 672l-9 -110c-51 19 -103 40 -161 40c-153 0 -251 -103 -251 -259c0 -144 98 -250 257 -250c52 0 104 24 157 40l12 -110c-61 -16 -119 -37 -181 -37c-246 0 -386 144 -386 357c0 214 145 366 379 366c70 0 131 -24 183 -37zM352 0h46v-46h7c74 0 112 -31 112 -92
c0 -60 -42 -93 -125 -93c-33 0 -76 7 -128 21v55c53 -14 95 -19 125 -19c35 0 51 12 51 37c0 29 -19 39 -62 39c-8 0 -17 0 -26 -1v99z" />
    <glyph glyph-name="Eacute" unicode="&#xc9;" horiz-adv-x="569" 
d="M77 694h424v-100h-287v-184h272v-102h-272v-203h297v-105h-434v694zM307 939h114l-149 -176h-62z" />
    <glyph glyph-name="Ecircumflex" unicode="&#xca;" horiz-adv-x="569" 
d="M77 694h424v-100h-287v-184h272v-102h-272v-203h297v-105h-434v694zM233 939h104l96 -176h-63l-85 109l-85 -109h-63z" />
    <glyph glyph-name="Edieresis" unicode="&#xcb;" horiz-adv-x="569" 
d="M77 694h424v-100h-287v-184h272v-102h-272v-203h297v-105h-434v694zM150 903h101v-111h-101v111zM319 903h101v-111h-101v111z" />
    <glyph glyph-name="Egrave" unicode="&#xc8;" horiz-adv-x="569" 
d="M77 694h424v-100h-287v-184h272v-102h-272v-203h297v-105h-434v694zM149 939h114l97 -176h-62z" />
    <glyph glyph-name="Eth" unicode="&#xd0;" horiz-adv-x="739" 
d="M97 694h199c116 0 199 -16 253 -50c99 -63 149 -162 149 -296c0 -133 -50 -232 -151 -295c-60 -38 -147 -53 -263 -53h-187v319h-78v80h78v295zM234 591v-192h140v-80h-140v-212h80c154 0 242 90 242 243c0 155 -86 241 -247 241h-75z" />
    <glyph glyph-name="Euro" unicode="&#x20ac;" horiz-adv-x="593" 
d="M59 300h71c-1 14 -1 28 -1 43c0 16 0 33 1 48h-77l14 58h70c26 157 113 260 263 260c54 0 113 -23 142 -37l-7 -110c-25 15 -74 40 -125 40c-89 0 -128 -58 -142 -153h254l-15 -58h-245c-1 -15 -1 -31 -1 -48c0 -15 0 -29 1 -43h231l-14 -58h-211
c14 -90 55 -149 147 -149c46 0 95 27 121 40l10 -110c-32 -14 -86 -37 -141 -37c-158 0 -244 100 -269 256h-91z" />
    <glyph glyph-name="Iacute" unicode="&#xcd;" horiz-adv-x="292" 
d="M77 694h137v-694h-137v694zM168 939h114l-149 -176h-62z" />
    <glyph glyph-name="Icircumflex" unicode="&#xce;" horiz-adv-x="292" 
d="M77 694h137v-694h-137v694zM94 939h104l96 -176h-63l-85 109l-85 -109h-63z" />
    <glyph glyph-name="Idieresis" unicode="&#xcf;" horiz-adv-x="292" 
d="M77 694h137v-694h-137v694zM11 903h101v-111h-101v111zM180 903h101v-111h-101v111z" />
    <glyph glyph-name="Igrave" unicode="&#xcc;" horiz-adv-x="292" 
d="M77 694h137v-694h-137v694zM10 939h114l97 -176h-62z" />
    <glyph glyph-name="Ntilde" unicode="&#xd1;" horiz-adv-x="734" 
d="M77 694h172l255 -485c12 -24 28 -66 46 -126c-12 71 -17 124 -17 159v452h124v-694h-169l-263 496c-13 24 -27 64 -41 120c12 -90 17 -145 17 -166v-450h-124v694zM470 910h50c-19 -75 -49 -110 -101 -110c-12 0 -23 1 -35 5l-45 14c-13 4 -23 5 -28 5
c-24 0 -38 -12 -47 -37h-50c17 72 49 107 100 107c12 0 24 -1 37 -5l47 -14c9 -3 17 -5 27 -5c22 0 37 13 45 40z" />
    <glyph glyph-name="Oacute" unicode="&#xd3;" horiz-adv-x="751" 
d="M375 709c203 0 329 -136 329 -362c0 -227 -126 -361 -329 -361s-328 134 -328 361s125 362 328 362zM375 606c-111 0 -189 -98 -189 -257c0 -160 78 -258 189 -258s190 99 190 258s-79 257 -190 257zM398 939h114l-149 -176h-62z" />
    <glyph glyph-name="Ocircumflex" unicode="&#xd4;" horiz-adv-x="751" 
d="M375 709c203 0 329 -136 329 -362c0 -227 -126 -361 -329 -361s-328 134 -328 361s125 362 328 362zM375 606c-111 0 -189 -98 -189 -257c0 -160 78 -258 189 -258s190 99 190 258s-79 257 -190 257zM324 939h104l96 -176h-63l-85 109l-85 -109h-63z" />
    <glyph glyph-name="Odieresis" unicode="&#xd6;" horiz-adv-x="751" 
d="M375 709c203 0 329 -136 329 -362c0 -227 -126 -361 -329 -361s-328 134 -328 361s125 362 328 362zM375 606c-111 0 -189 -98 -189 -257c0 -160 78 -258 189 -258s190 99 190 258s-79 257 -190 257zM241 903h101v-111h-101v111zM410 903h101v-111h-101v111z" />
    <glyph glyph-name="Ograve" unicode="&#xd2;" horiz-adv-x="751" 
d="M375 709c203 0 329 -136 329 -362c0 -227 -126 -361 -329 -361s-328 134 -328 361s125 362 328 362zM375 606c-111 0 -189 -98 -189 -257c0 -160 78 -258 189 -258s190 99 190 258s-79 257 -190 257zM240 939h114l97 -176h-62z" />
    <glyph glyph-name="Otilde" unicode="&#xd5;" horiz-adv-x="751" 
d="M375 709c203 0 329 -136 329 -362c0 -227 -126 -361 -329 -361s-328 134 -328 361s125 362 328 362zM375 606c-111 0 -189 -98 -189 -257c0 -160 78 -258 189 -258s190 99 190 258s-79 257 -190 257zM479 910h50c-19 -75 -49 -110 -101 -110c-12 0 -23 1 -35 5l-45 14
c-13 4 -23 5 -28 5c-24 0 -38 -12 -47 -37h-50c17 72 49 107 100 107c12 0 24 -1 37 -5l47 -14c9 -3 17 -5 27 -5c22 0 37 13 45 40z" />
    <glyph glyph-name="Scaron" unicode="&#x160;" horiz-adv-x="559" 
d="M482 676l-12 -109c-49 22 -100 35 -153 35c-76 0 -117 -30 -117 -77c0 -49 47 -69 128 -110c116 -59 180 -110 180 -213c0 -122 -100 -218 -266 -218c-54 0 -117 21 -183 41l13 119c59 -29 117 -53 170 -53c79 0 124 42 124 90c0 54 -48 77 -123 118
c-47 25 -93 47 -130 87c-32 34 -49 78 -49 126c0 112 92 197 254 197c56 0 110 -19 164 -33zM132 939h63l85 -109l85 109h63l-96 -176h-104z" />
    <glyph glyph-name="Thorn" unicode="&#xde;" horiz-adv-x="572" 
d="M78 694h137v-93h69c178 0 265 -69 265 -217c0 -133 -91 -213 -260 -213h-74v-171h-137v694zM215 502v-233h56c90 0 138 42 138 116c0 75 -46 117 -130 117h-64z" />
    <glyph glyph-name="Uacute" unicode="&#xda;" horiz-adv-x="705" 
d="M73 694h137v-407c0 -132 42 -195 140 -195c97 0 147 67 147 200v402h129v-403c0 -203 -93 -305 -278 -305c-181 0 -275 101 -275 299v409zM375 939h114l-149 -176h-62z" />
    <glyph glyph-name="Ucircumflex" unicode="&#xdb;" horiz-adv-x="705" 
d="M73 694h137v-407c0 -132 42 -195 140 -195c97 0 147 67 147 200v402h129v-403c0 -203 -93 -305 -278 -305c-181 0 -275 101 -275 299v409zM301 939h104l96 -176h-63l-85 109l-85 -109h-63z" />
    <glyph glyph-name="Udieresis" unicode="&#xdc;" horiz-adv-x="705" 
d="M73 694h137v-407c0 -132 42 -195 140 -195c97 0 147 67 147 200v402h129v-403c0 -203 -93 -305 -278 -305c-181 0 -275 101 -275 299v409zM218 903h101v-111h-101v111zM387 903h101v-111h-101v111z" />
    <glyph glyph-name="Ugrave" unicode="&#xd9;" horiz-adv-x="705" 
d="M73 694h137v-407c0 -132 42 -195 140 -195c97 0 147 67 147 200v402h129v-403c0 -203 -93 -305 -278 -305c-181 0 -275 101 -275 299v409zM217 939h114l97 -176h-62z" />
    <glyph glyph-name="Yacute" unicode="&#xdd;" horiz-adv-x="601" 
d="M-21 694h157l169 -313l169 313h148l-254 -419v-275h-137v273zM323 939h114l-149 -176h-62z" />
    <glyph glyph-name="Ydieresis" unicode="&#x178;" horiz-adv-x="601" 
d="M-21 694h157l169 -313l169 313h148l-254 -419v-275h-137v273zM166 903h101v-111h-101v111zM335 903h101v-111h-101v111z" />
    <glyph glyph-name="Zcaron" unicode="&#x17d;" horiz-adv-x="570" 
d="M49 694h484v-114l-355 -475h359v-105h-499v120l352 471h-341v103zM137 939h63l85 -109l85 109h63l-96 -176h-104z" />
    <glyph glyph-name="aacute" unicode="&#xe1;" horiz-adv-x="563" 
d="M497 289v-289h-115l-2 82c-40 -59 -97 -95 -172 -95c-104 0 -170 68 -170 160c0 112 89 169 267 169h67v7c0 70 -46 109 -125 109c-44 0 -92 -13 -145 -41l-2 93c60 24 118 36 178 36c153 0 219 -72 219 -231zM326 242c-107 0 -160 -30 -160 -88c0 -43 32 -75 83 -75
c69 0 123 53 123 136v27h-46zM304 751h114l-149 -176h-62z" />
    <glyph glyph-name="acircumflex" unicode="&#xe2;" horiz-adv-x="563" 
d="M497 289v-289h-115l-2 82c-40 -59 -97 -95 -172 -95c-104 0 -170 68 -170 160c0 112 89 169 267 169h67v7c0 70 -46 109 -125 109c-44 0 -92 -13 -145 -41l-2 93c60 24 118 36 178 36c153 0 219 -72 219 -231zM326 242c-107 0 -160 -30 -160 -88c0 -43 32 -75 83 -75
c69 0 123 53 123 136v27h-46zM230 751h104l96 -176h-63l-85 109l-85 -109h-63z" />
    <glyph glyph-name="adieresis" unicode="&#xe4;" horiz-adv-x="563" 
d="M497 289v-289h-115l-2 82c-40 -59 -97 -95 -172 -95c-104 0 -170 68 -170 160c0 112 89 169 267 169h67v7c0 70 -46 109 -125 109c-44 0 -92 -13 -145 -41l-2 93c60 24 118 36 178 36c153 0 219 -72 219 -231zM326 242c-107 0 -160 -30 -160 -88c0 -43 32 -75 83 -75
c69 0 123 53 123 136v27h-46zM147 715h101v-111h-101v111zM316 715h101v-111h-101v111z" />
    <glyph glyph-name="agrave" unicode="&#xe0;" horiz-adv-x="563" 
d="M497 289v-289h-115l-2 82c-40 -59 -97 -95 -172 -95c-104 0 -170 68 -170 160c0 112 89 169 267 169h67v7c0 70 -46 109 -125 109c-44 0 -92 -13 -145 -41l-2 93c60 24 118 36 178 36c153 0 219 -72 219 -231zM326 242c-107 0 -160 -30 -160 -88c0 -43 32 -75 83 -75
c69 0 123 53 123 136v27h-46zM146 751h114l97 -176h-62z" />
    <glyph glyph-name="aring" unicode="&#xe5;" horiz-adv-x="563" 
d="M326 242c-107 0 -160 -30 -160 -88c0 -43 32 -75 83 -75c69 0 123 53 123 136v27h-46zM497 289v-289h-115l-2 82c-40 -59 -97 -88 -172 -88c-104 0 -170 61 -170 153c0 112 89 169 267 169h67v7c0 70 -46 109 -125 109c-44 0 -92 -13 -145 -41l-2 93c60 24 118 36 178 36
c153 0 219 -72 219 -231zM280 806c71 0 127 -57 127 -127c0 -71 -56 -126 -127 -126s-126 55 -126 126s55 127 126 127zM281 742c-35 0 -63 -28 -63 -63s28 -63 63 -63s62 28 62 63s-27 63 -62 63z" />
    <glyph glyph-name="atilde" unicode="&#xe3;" horiz-adv-x="563" 
d="M497 289v-289h-115l-2 82c-40 -59 -97 -95 -172 -95c-104 0 -170 68 -170 160c0 112 89 169 267 169h67v7c0 70 -46 109 -125 109c-44 0 -92 -13 -145 -41l-2 93c60 24 118 36 178 36c153 0 219 -72 219 -231zM326 242c-107 0 -160 -30 -160 -88c0 -43 32 -75 83 -75
c69 0 123 53 123 136v27h-46zM385 722h50c-19 -75 -49 -110 -101 -110c-12 0 -23 1 -35 5l-45 14c-13 4 -23 5 -28 5c-24 0 -38 -12 -47 -37h-50c17 72 49 107 100 107c12 0 24 -1 37 -5l47 -14c9 -3 17 -5 27 -5c22 0 37 13 45 40z" />
    <glyph glyph-name="brokenbar" unicode="&#xa6;" 
d="M200 699h101v-370h-101v370zM200 199h101v-370h-101v370z" />
    <glyph glyph-name="ccedilla" unicode="&#xe7;" horiz-adv-x="490" 
d="M453 494l-10 -102c-33 13 -71 26 -102 26c-100 0 -163 -68 -163 -163c0 -96 64 -166 161 -166c40 0 76 14 112 33l5 -104c-44 -15 -92 -31 -142 -31c-167 0 -272 108 -272 271c0 147 109 262 271 262c55 0 103 -17 140 -26zM244 0h46v-46h7c74 0 112 -31 112 -92
c0 -60 -42 -93 -125 -93c-33 0 -76 7 -128 21v55c53 -14 95 -19 125 -19c35 0 51 12 51 37c0 29 -19 39 -62 39c-8 0 -17 0 -26 -1v99z" />
    <glyph glyph-name="copyright" unicode="&#xa9;" horiz-adv-x="833" 
d="M416 722c99 0 189 -37 259 -107c68 -68 105 -159 105 -257c0 -100 -37 -187 -105 -254c-72 -70 -164 -109 -259 -109c-96 0 -185 38 -255 108c-69 69 -107 159 -107 255s37 187 107 258c68 69 156 106 255 106zM417 662c-83 0 -157 -30 -214 -88
c-58 -59 -89 -135 -89 -215c0 -81 31 -156 89 -214s134 -89 214 -89s156 31 216 90c57 56 87 130 87 213c0 82 -31 157 -88 214c-58 58 -132 89 -215 89zM592 438h-92c-5 46 -36 72 -84 72c-57 0 -95 -53 -95 -151c0 -96 35 -147 99 -147c47 0 77 28 83 79h94
c-5 -90 -76 -150 -180 -150c-120 0 -196 81 -196 215c0 136 79 220 197 220c100 0 169 -56 174 -138z" />
    <glyph glyph-name="degree" unicode="&#xb0;" horiz-adv-x="329" 
d="M165 715c82 0 148 -67 148 -149c0 -81 -66 -148 -149 -148c-82 0 -147 65 -147 148s66 149 148 149zM165 652c-47 0 -86 -38 -86 -85c0 -48 38 -86 86 -86s85 40 85 86c0 47 -38 85 -85 85z" />
    <glyph glyph-name="divide" unicode="&#xf7;" horiz-adv-x="833" 
d="M417 564c40 0 74 -33 74 -74c0 -40 -32 -74 -74 -74c-41 0 -74 33 -74 74c0 42 34 74 74 74zM124 347h585v-97h-585v97zM417 180c40 0 74 -33 74 -74c0 -39 -33 -73 -74 -73s-74 32 -74 73c0 42 34 74 74 74z" />
    <glyph glyph-name="eacute" unicode="&#xe9;" horiz-adv-x="551" 
d="M407 299c-7 87 -51 136 -116 136c-66 0 -113 -49 -123 -136h239zM525 259v-41h-357c7 -85 69 -138 166 -138c52 0 102 12 149 37v-100c-47 -19 -104 -30 -172 -30c-169 0 -270 103 -270 275c0 154 102 258 251 258c147 0 233 -96 233 -261zM312 751h114l-149 -176h-62z
" />
    <glyph glyph-name="ecircumflex" unicode="&#xea;" horiz-adv-x="551" 
d="M407 299c-7 87 -51 136 -116 136c-66 0 -113 -49 -123 -136h239zM525 259v-41h-357c7 -85 69 -138 166 -138c52 0 102 12 149 37v-100c-47 -19 -104 -30 -172 -30c-169 0 -270 103 -270 275c0 154 102 258 251 258c147 0 233 -96 233 -261zM238 751h104l96 -176h-63
l-85 109l-85 -109h-63z" />
    <glyph glyph-name="edieresis" unicode="&#xeb;" horiz-adv-x="551" 
d="M407 299c-7 87 -51 136 -116 136c-66 0 -113 -49 -123 -136h239zM525 259v-41h-357c7 -85 69 -138 166 -138c52 0 102 12 149 37v-100c-47 -19 -104 -30 -172 -30c-169 0 -270 103 -270 275c0 154 102 258 251 258c147 0 233 -96 233 -261zM155 715h101v-111h-101v111z
M324 715h101v-111h-101v111z" />
    <glyph glyph-name="egrave" unicode="&#xe8;" horiz-adv-x="551" 
d="M407 299c-7 87 -51 136 -116 136c-66 0 -113 -49 -123 -136h239zM525 259v-41h-357c7 -85 69 -138 166 -138c52 0 102 12 149 37v-100c-47 -19 -104 -30 -172 -30c-169 0 -270 103 -270 275c0 154 102 258 251 258c147 0 233 -96 233 -261zM154 751h114l97 -176h-62z" />
    <glyph glyph-name="eth" unicode="&#xf0;" horiz-adv-x="622" 
d="M289 748c15 -17 35 -39 59 -64l111 56l32 -56l-98 -50c119 -143 179 -271 179 -389c0 -160 -100 -258 -261 -258s-260 98 -260 258c0 159 100 259 252 259c28 0 55 -4 81 -13c-21 35 -45 70 -72 103l-111 -55l-29 57l100 51c-27 33 -60 66 -100 101h117zM311 413
c-76 0 -129 -65 -129 -167c0 -101 54 -165 129 -165c76 0 130 63 130 165c0 103 -53 167 -130 167z" />
    <glyph glyph-name="iacute" unicode="&#xed;" horiz-adv-x="278" 
d="M74 507h130v-507h-130v507zM161 751h114l-149 -176h-62z" />
    <glyph glyph-name="icircumflex" unicode="&#xee;" horiz-adv-x="278" 
d="M74 507h130v-507h-130v507zM87 751h104l96 -176h-63l-85 109l-85 -109h-63z" />
    <glyph glyph-name="idieresis" unicode="&#xef;" horiz-adv-x="278" 
d="M74 507h130v-507h-130v507zM4 715h101v-111h-101v111zM173 715h101v-111h-101v111z" />
    <glyph glyph-name="igrave" unicode="&#xec;" horiz-adv-x="278" 
d="M74 507h130v-507h-130v507zM3 751h114l97 -176h-62z" />
    <glyph glyph-name="logicalnot" unicode="&#xac;" horiz-adv-x="833" 
d="M124 422h585v-245h-97v149h-488v96z" />
    <glyph glyph-name="minus" unicode="&#x2212;" horiz-adv-x="833" 
d="M124 348h585v-99h-585v99z" />
    <glyph glyph-name="mu" unicode="&#xb5;" horiz-adv-x="610" 
d="M100 533h141l-37 -212c-12 -66 -15 -111 -15 -131c0 -61 27 -90 83 -90c70 0 99 57 121 182l44 251h141l-94 -533h-131l9 57c-27 -50 -59 -73 -105 -73c-44 0 -77 19 -104 59l-44 -257h-140z" />
    <glyph glyph-name="multiply" unicode="&#xd7;" horiz-adv-x="833" 
d="M203 587l220 -220l220 220l69 -68l-220 -221l220 -220l-69 -68l-220 220l-220 -220l-68 68l220 220l-220 221z" />
    <glyph glyph-name="ntilde" unicode="&#xf1;" horiz-adv-x="622" 
d="M556 302v-302h-131v274c0 93 -31 137 -100 137c-70 0 -119 -57 -119 -159v-252h-130v507h119v-92c38 69 100 105 180 105c118 0 181 -74 181 -218zM425 722h50c-19 -75 -49 -110 -101 -110c-12 0 -23 1 -35 5l-45 14c-13 4 -23 5 -28 5c-24 0 -38 -12 -47 -37h-50
c17 72 49 107 100 107c12 0 24 -1 37 -5l47 -14c9 -3 17 -5 27 -5c22 0 37 13 45 40z" />
    <glyph glyph-name="oacute" unicode="&#xf3;" horiz-adv-x="622" 
d="M311 520c168 0 270 -100 270 -266s-103 -267 -270 -267s-269 101 -269 267s101 266 269 266zM311 426c-77 0 -133 -67 -133 -171s56 -170 133 -170c78 0 133 65 133 170s-55 171 -133 171zM333 751h114l-149 -176h-62z" />
    <glyph glyph-name="ocircumflex" unicode="&#xf4;" horiz-adv-x="622" 
d="M311 520c168 0 270 -100 270 -266s-103 -267 -270 -267s-269 101 -269 267s101 266 269 266zM311 426c-77 0 -133 -67 -133 -171s56 -170 133 -170c78 0 133 65 133 170s-55 171 -133 171zM259 751h104l96 -176h-63l-85 109l-85 -109h-63z" />
    <glyph glyph-name="odieresis" unicode="&#xf6;" horiz-adv-x="622" 
d="M311 520c168 0 270 -100 270 -266s-103 -267 -270 -267s-269 101 -269 267s101 266 269 266zM311 426c-77 0 -133 -67 -133 -171s56 -170 133 -170c78 0 133 65 133 170s-55 171 -133 171zM176 715h101v-111h-101v111zM345 715h101v-111h-101v111z" />
    <glyph glyph-name="ograve" unicode="&#xf2;" horiz-adv-x="622" 
d="M311 520c168 0 270 -100 270 -266s-103 -267 -270 -267s-269 101 -269 267s101 266 269 266zM311 426c-77 0 -133 -67 -133 -171s56 -170 133 -170c78 0 133 65 133 170s-55 171 -133 171zM175 751h114l97 -176h-62z" />
    <glyph glyph-name="onehalf" unicode="&#xbd;" horiz-adv-x="914" 
d="M181 695h69v-389h-80v309l-76 -52l-41 49zM599 709h83l-367 -723h-85zM680 57h188v-57h-291v59c127 102 195 168 195 222c0 31 -29 54 -75 54c-30 0 -66 -9 -102 -27l-5 64c47 17 89 24 124 24c88 0 143 -47 143 -108c0 -69 -62 -138 -177 -231z" />
    <glyph glyph-name="onequarter" unicode="&#xbc;" horiz-adv-x="914" 
d="M181 695h69v-389h-80v309l-76 -52l-41 49zM599 709h83l-367 -723h-85zM740 389h99v-252h61v-55h-61v-82h-80v82h-202v66zM762 329l-141 -192h138z" />
    <glyph glyph-name="onesuperior" unicode="&#xb9;" horiz-adv-x="391" 
d="M190 694h72v-416h-83v331l-80 -56l-43 53z" />
    <glyph glyph-name="otilde" unicode="&#xf5;" horiz-adv-x="622" 
d="M311 520c168 0 270 -100 270 -266s-103 -267 -270 -267s-269 101 -269 267s101 266 269 266zM311 426c-77 0 -133 -67 -133 -171s56 -170 133 -170c78 0 133 65 133 170s-55 171 -133 171zM414 722h50c-19 -75 -49 -110 -101 -110c-12 0 -23 1 -35 5l-45 14
c-13 4 -23 5 -28 5c-24 0 -38 -12 -47 -37h-50c17 72 49 107 100 107c12 0 24 -1 37 -5l47 -14c9 -3 17 -5 27 -5c22 0 37 13 45 40z" />
    <glyph glyph-name="plusminus" unicode="&#xb1;" horiz-adv-x="833" 
d="M367 597h99v-159h243v-97h-243v-159h-99v159h-243v97h243v159zM124 96h585v-97h-585v97z" />
    <glyph glyph-name="registered" unicode="&#xae;" horiz-adv-x="833" 
d="M416 722c100 0 191 -38 261 -109c67 -68 103 -158 103 -255c0 -100 -38 -190 -107 -257c-71 -69 -163 -106 -257 -106c-97 0 -188 39 -258 110c-68 69 -104 159 -104 253c0 65 17 128 53 189c65 110 178 175 309 175zM417 662c-82 0 -154 -29 -211 -86
c-59 -59 -92 -137 -92 -217s30 -155 87 -212c58 -59 135 -92 215 -92c79 0 155 32 215 89c57 55 89 131 89 209c0 87 -29 160 -86 218c-59 60 -133 91 -217 91zM266 567h158c115 0 172 -39 172 -116c0 -53 -33 -93 -88 -107l90 -180h-109l-77 165h-48v-165h-98v403zM364 505
v-117h48c56 0 83 17 83 57c0 42 -29 60 -88 60h-43z" />
    <glyph glyph-name="scaron" unicode="&#x161;" horiz-adv-x="456" 
d="M398 491l-10 -96c-44 23 -88 35 -131 35c-48 0 -73 -17 -73 -46c0 -37 37 -50 93 -75c95 -42 143 -80 143 -157c0 -94 -79 -157 -215 -157c-56 0 -110 9 -157 26l7 100c49 -24 100 -36 149 -36c53 0 81 19 81 49c0 38 -39 57 -103 89c-81 40 -128 74 -128 146
c0 85 77 151 205 151c44 0 91 -14 139 -29zM80 751h63l85 -109l85 109h63l-96 -176h-104z" />
    <glyph glyph-name="thorn" unicode="&#xfe;" horiz-adv-x="635" 
d="M76 748h130v-320c38 60 98 92 168 92c129 0 217 -99 217 -261c0 -164 -92 -270 -216 -270c-74 0 -131 30 -169 88v-286h-130v957zM337 420c-79 0 -131 -61 -131 -165s52 -165 125 -165c74 0 125 61 125 168c0 100 -49 162 -119 162z" />
    <glyph glyph-name="threequarters" unicode="&#xbe;" horiz-adv-x="914" 
d="M234 509c60 -11 91 -45 91 -89c0 -69 -68 -117 -185 -117c-38 0 -75 5 -110 14l6 64c28 -13 60 -20 96 -20c66 0 106 28 106 65c0 34 -29 53 -88 53h-50v54h49c54 0 87 22 87 54c0 30 -34 54 -90 54c-28 0 -61 -5 -94 -17l-5 60c43 8 83 19 119 19c97 0 153 -47 153 -108
c0 -41 -30 -74 -85 -86zM600 709h83l-367 -723h-85zM741 389h99v-252h61v-55h-61v-82h-80v82h-202v66zM763 329l-141 -192h138z" />
    <glyph glyph-name="threesuperior" unicode="&#xb3;" horiz-adv-x="391" 
d="M246 496c62 -13 95 -48 95 -96c0 -73 -72 -126 -194 -126c-40 0 -79 6 -116 16l7 68c29 -14 62 -21 100 -21c70 0 111 30 111 69c0 37 -31 57 -92 57h-52v59h51c57 0 91 23 91 57c0 33 -36 58 -94 58c-30 0 -64 -6 -99 -19l-4 65c44 9 86 20 124 20
c101 0 160 -50 160 -115c0 -45 -32 -80 -88 -92z" />
    <glyph glyph-name="trademark" unicode="&#x2122;" horiz-adv-x="833" 
d="M101 714h237v-55h-82v-212h-73v212h-82v55zM392 714h96l62 -162l60 162h96v-267h-66v200l-75 -200h-30l-77 200v-200h-66v267z" />
    <glyph glyph-name="twosuperior" unicode="&#xb2;" horiz-adv-x="391" 
d="M147 339h196v-61h-304v63c133 109 205 180 205 238c0 34 -31 58 -79 58c-32 0 -70 -9 -108 -29l-5 68c50 18 94 27 130 27c93 0 150 -51 150 -117c0 -73 -65 -147 -185 -247z" />
    <glyph glyph-name="uacute" unicode="&#xfa;" horiz-adv-x="622" 
d="M65 507h131v-269c0 -93 31 -137 100 -137c76 0 119 61 119 180v226h131v-507h-119v97c-38 -69 -100 -105 -180 -105c-118 0 -182 74 -182 218v297zM333 751h114l-149 -176h-62z" />
    <glyph glyph-name="ucircumflex" unicode="&#xfb;" horiz-adv-x="622" 
d="M65 507h131v-269c0 -93 31 -137 100 -137c76 0 119 61 119 180v226h131v-507h-119v97c-38 -69 -100 -105 -180 -105c-118 0 -182 74 -182 218v297zM259 751h104l96 -176h-63l-85 109l-85 -109h-63z" />
    <glyph glyph-name="udieresis" unicode="&#xfc;" horiz-adv-x="622" 
d="M65 507h131v-269c0 -93 31 -137 100 -137c76 0 119 61 119 180v226h131v-507h-119v97c-38 -69 -100 -105 -180 -105c-118 0 -182 74 -182 218v297zM176 715h101v-111h-101v111zM345 715h101v-111h-101v111z" />
    <glyph glyph-name="ugrave" unicode="&#xf9;" horiz-adv-x="622" 
d="M65 507h131v-269c0 -93 31 -137 100 -137c76 0 119 61 119 180v226h131v-507h-119v97c-38 -69 -100 -105 -180 -105c-118 0 -182 74 -182 218v297zM175 751h114l97 -176h-62z" />
    <glyph glyph-name="yacute" unicode="&#xfd;" horiz-adv-x="531" 
d="M12 507h141l126 -388l123 388h131l-200 -530c-50 -134 -102 -195 -216 -195c-19 0 -44 3 -74 8l11 102c16 -5 30 -7 42 -7c53 0 85 30 116 97zM288 751h114l-149 -176h-62z" />
    <glyph glyph-name="ydieresis" unicode="&#xff;" horiz-adv-x="531" 
d="M12 507h141l126 -388l123 388h131l-200 -530c-50 -134 -102 -195 -216 -195c-19 0 -44 3 -74 8l11 102c16 -5 30 -7 42 -7c53 0 85 30 116 97zM131 715h101v-111h-101v111zM300 715h101v-111h-101v111z" />
    <glyph glyph-name="zcaron" unicode="&#x17e;" horiz-adv-x="484" 
d="M47 507h402v-104l-272 -305h272v-98h-411v111l266 298h-257v98zM94 751h63l85 -109l85 109h63l-96 -176h-104z" />
    </font>
</defs>
</svg>
